<mxfile host="app.diagrams.net" modified="2024-01-29T06:02:47.090Z" agent="Mozilla/5.0 (Windows NT 10.0; Win64; x64) AppleWebKit/537.36 (KHTML, like Gecko) Chrome/121.0.0.0 Safari/537.36 Edg/121.0.0.0" version="23.0.2" etag="zs2S9_HbrOfpRwALN13Y" type="github">
  <diagram name="第 1 页" id="KjYQnIZAg3lkZIHuFVQY">
    <mxGraphModel>
      <root>
        <mxCell id="0" />
        <mxCell id="1" parent="0" />
      </root>
    </mxGraphModel>
  </diagram>
</mxfile>
